<?xml version="1.0" encoding="UTF-8" standalone="no"?>
<!-- Created with Inkscape (http://www.inkscape.org/) -->

<svg
   xmlns:dc="http://purl.org/dc/elements/1.1/"
   xmlns:cc="http://creativecommons.org/ns#"
   xmlns:rdf="http://www.w3.org/1999/02/22-rdf-syntax-ns#"
   xmlns:svg="http://www.w3.org/2000/svg"
   xmlns="http://www.w3.org/2000/svg"
   xmlns:sodipodi="http://sodipodi.sourceforge.net/DTD/sodipodi-0.dtd"
   xmlns:inkscape="http://www.inkscape.org/namespaces/inkscape"
   width="55.274864mm"
   height="18.544485mm"
   viewBox="0 0 55.274864 18.544485"
   version="1.1"
   id="svg8"
   inkscape:version="0.92.2 (5c3e80d, 2017-08-06)"
   sodipodi:docname="logo_ntt.svg">
  <defs
     id="defs2" />
  <sodipodi:namedview
     id="base"
     pagecolor="#ffffff"
     bordercolor="#666666"
     borderopacity="1.0"
     inkscape:pageopacity="0.0"
     inkscape:pageshadow="2"
     inkscape:zoom="6.916759"
     inkscape:cx="104.45644"
     inkscape:cy="35.044696"
     inkscape:document-units="mm"
     inkscape:current-layer="text3779-9"
     showgrid="false"
     inkscape:window-width="1600"
     inkscape:window-height="837"
     inkscape:window-x="-8"
     inkscape:window-y="-8"
     inkscape:window-maximized="1" />
  <metadata
     id="metadata5">
    <rdf:RDF>
      <cc:Work
         rdf:about="">
        <dc:format>image/svg+xml</dc:format>
        <dc:type
           rdf:resource="http://purl.org/dc/dcmitype/StillImage" />
        <dc:title />
      </cc:Work>
    </rdf:RDF>
  </metadata>
  <g
     inkscape:label="Livello 1"
     inkscape:groupmode="layer"
     id="layer1"
     transform="translate(-29.251107,-40.194725)">
    <rect
       transform="scale(0.88491862,1.1300474)"
       style="font-style:normal;font-weight:normal;font-size:11.95966816px;line-height:1.25;font-family:sans-serif;letter-spacing:0px;word-spacing:0px;fill:#0000ff;fill-opacity:1;stroke:none;stroke-width:0.07910822"
       id="rect4669"
       width="62.463219"
       height="16.41036"
       x="33.055138"
       y="35.569061" />
    <g
       aria-label="NATALINI"
       transform="scale(0.88491863,1.1300474)"
       style="font-style:normal;font-weight:normal;font-size:11.95966816px;line-height:1.25;font-family:sans-serif;letter-spacing:0px;word-spacing:0px;fill:#ff7f2a;fill-opacity:1;stroke:none;stroke-width:0.29899168"
       id="text3779">
      <path
         d="m 35.036112,36.962149 h 2.511063 l 3.170947,5.979834 v -5.979834 h 2.131484 v 8.718645 H 40.338543 L 37.167595,39.70096 v 5.979834 h -2.131483 z"
         style="font-style:normal;font-variant:normal;font-weight:bold;font-stretch:normal;font-size:11.95966816px;font-family:sans-serif;-inkscape-font-specification:'sans-serif, Bold';font-variant-ligatures:normal;font-variant-caps:normal;font-variant-numeric:normal;font-feature-settings:normal;text-align:start;writing-mode:lr-tb;text-anchor:start;fill:#ff7f2a;stroke-width:0.29899168"
         id="path4652"
         inkscape:connector-curvature="0" />
      <path
         d="m 50.347757,44.0924 h -3.515488 l -0.55477,1.588394 h -2.259957 l 3.229344,-8.718645 H 49.9273 l 3.229344,8.718645 h -2.259957 z m -2.954879,-1.617592 h 2.38843 l -1.191295,-3.46877 z"
         style="font-style:normal;font-variant:normal;font-weight:bold;font-stretch:normal;font-size:11.95966816px;font-family:sans-serif;-inkscape-font-specification:'sans-serif, Bold';font-variant-ligatures:normal;font-variant-caps:normal;font-variant-numeric:normal;font-feature-settings:normal;text-align:start;writing-mode:lr-tb;text-anchor:start;fill:#ff7f2a;stroke-width:0.29899168"
         id="path4654"
         inkscape:connector-curvature="0" />
      <path
         d="m 52.33325,36.962149 h 8.035402 v 2.21158 H 57.478009 V 51.155435 H 55.229732 V 39.173729 H 52.33325 Z"
         style="font-style:normal;font-variant:normal;font-weight:bold;font-stretch:normal;font-size:11.95966816px;font-family:sans-serif;-inkscape-font-specification:'sans-serif, Bold';font-variant-ligatures:normal;font-variant-caps:normal;font-variant-numeric:normal;font-feature-settings:normal;text-align:start;writing-mode:lr-tb;text-anchor:start;fill:#ff7f2a;stroke-width:0.34109029"
         id="path4656"
         inkscape:connector-curvature="0"
         sodipodi:nodetypes="ccccccccc" />
      <path
         d="m 65.88131,44.0924 h -3.515488 l -0.55477,1.588394 h -2.259957 l 3.229344,-8.718645 h 2.680414 l 3.229344,8.718645 h -2.259956 z m -2.954878,-1.617592 h 2.388429 l -1.191295,-3.46877 z"
         style="font-style:normal;font-variant:normal;font-weight:bold;font-stretch:normal;font-size:11.95966816px;font-family:sans-serif;-inkscape-font-specification:'sans-serif, Bold';font-variant-ligatures:normal;font-variant-caps:normal;font-variant-numeric:normal;font-feature-settings:normal;text-align:start;writing-mode:lr-tb;text-anchor:start;fill:#ff7f2a;stroke-width:0.29899168"
         id="path4658"
         inkscape:connector-curvature="0" />
      <path
         d="m 69.840616,36.962149 h 2.248278 v 7.019297 h 3.947624 v 1.699348 h -6.195902 z"
         style="font-style:normal;font-variant:normal;font-weight:bold;font-stretch:normal;font-size:11.95966816px;font-family:sans-serif;-inkscape-font-specification:'sans-serif, Bold';font-variant-ligatures:normal;font-variant-caps:normal;font-variant-numeric:normal;font-feature-settings:normal;text-align:start;writing-mode:lr-tb;text-anchor:start;fill:#ff7f2a;stroke-width:0.29899168"
         id="path4660"
         inkscape:connector-curvature="0" />
      <path
         d="m 77.455561,36.962149 h 2.248277 v 8.718645 h -2.248277 z"
         style="font-style:normal;font-variant:normal;font-weight:bold;font-stretch:normal;font-size:11.95966816px;font-family:sans-serif;-inkscape-font-specification:'sans-serif, Bold';font-variant-ligatures:normal;font-variant-caps:normal;font-variant-numeric:normal;font-feature-settings:normal;text-align:start;writing-mode:lr-tb;text-anchor:start;fill:#ff7f2a;stroke-width:0.29899168"
         id="path4662"
         inkscape:connector-curvature="0" />
      <path
         d="m 81.917078,36.962149 h 2.511063 l 3.170947,5.979834 v -5.979834 h 2.131484 v 8.718645 H 87.219509 L 84.048562,39.70096 v 5.979834 h -2.131484 z"
         style="font-style:normal;font-variant:normal;font-weight:bold;font-stretch:normal;font-size:11.95966816px;font-family:sans-serif;-inkscape-font-specification:'sans-serif, Bold';font-variant-ligatures:normal;font-variant-caps:normal;font-variant-numeric:normal;font-feature-settings:normal;text-align:start;writing-mode:lr-tb;text-anchor:start;fill:#ff7f2a;stroke-width:0.29899168"
         id="path4664"
         inkscape:connector-curvature="0" />
      <path
         d="m 91.937971,36.962149 h 2.248277 v 8.718645 h -2.248277 z"
         style="font-style:normal;font-variant:normal;font-weight:bold;font-stretch:normal;font-size:11.95966816px;font-family:sans-serif;-inkscape-font-specification:'sans-serif, Bold';font-variant-ligatures:normal;font-variant-caps:normal;font-variant-numeric:normal;font-feature-settings:normal;text-align:start;writing-mode:lr-tb;text-anchor:start;fill:#ff7f2a;stroke-width:0.29899168"
         id="path4666"
         inkscape:connector-curvature="0" />
    </g>
    <g
       aria-label="RASPORTI"
       transform="scale(0.88491863,1.1300474)"
       style="font-style:normal;font-weight:normal;font-size:6.47791958px;line-height:1.25;font-family:sans-serif;letter-spacing:0px;word-spacing:0px;fill:#ff7f2a;fill-opacity:1;stroke:none;stroke-width:0.16194798"
       id="text3779-9">
      <path
         d="m 60.668151,48.514613 q 0.382728,0 0.547207,-0.142337 0.167641,-0.142337 0.167641,-0.468131 0,-0.322631 -0.167641,-0.461805 -0.164479,-0.139174 -0.547207,-0.139174 h -0.512414 v 1.211447 z m -0.512414,0.84137 v 1.787122 h -1.217773 v -4.722429 h 1.859872 q 0.933098,0 1.366436,0.313141 0.4365,0.313142 0.4365,0.990034 0,0.468131 -0.227739,0.76862 -0.224577,0.30049 -0.680055,0.442827 0.24988,0.05693 0.445989,0.25937 0.199272,0.199272 0.401707,0.607305 l 0.661077,1.341132 h -1.296849 l -0.575675,-1.173491 q -0.173967,-0.354261 -0.354261,-0.483946 -0.17713,-0.129685 -0.474457,-0.129685 z"
         style="font-style:normal;font-variant:normal;font-weight:bold;font-stretch:normal;font-size:6.47791958px;font-family:sans-serif;-inkscape-font-specification:'sans-serif, Bold';font-variant-ligatures:normal;font-variant-caps:normal;font-variant-numeric:normal;font-feature-settings:normal;text-align:start;writing-mode:lr-tb;text-anchor:start;fill:#ff7f2a;stroke-width:0.16194798"
         id="path19" />
      <path
         d="m 66.788646,50.282756 h -1.904154 l -0.30049,0.860349 h -1.224099 l 1.749165,-4.722429 h 1.451839 l 1.749164,4.722429 h -1.224099 z m -1.600502,-0.876164 h 1.293686 l -0.645261,-1.87885 z"
         style="font-style:normal;font-variant:normal;font-weight:bold;font-stretch:normal;font-size:6.47791958px;font-family:sans-serif;-inkscape-font-specification:'sans-serif, Bold';font-variant-ligatures:normal;font-variant-caps:normal;font-variant-numeric:normal;font-feature-settings:normal;text-align:start;writing-mode:lr-tb;text-anchor:start;fill:#ff7f2a;stroke-width:0.16194798"
         id="path21" />
      <path
         d="m 72.219597,46.569339 v 0.999523 q -0.389054,-0.173968 -0.759131,-0.262533 -0.370076,-0.08856 -0.699033,-0.08856 -0.436501,0 -0.645262,0.120195 -0.208761,0.120196 -0.208761,0.37324 0,0.189783 0.139174,0.297326 0.142337,0.104381 0.512414,0.180294 l 0.51874,0.104381 q 0.787598,0.158152 1.119718,0.480783 0.33212,0.32263 0.33212,0.917283 0,0.781273 -0.464968,1.164001 -0.461805,0.379566 -1.413882,0.379566 -0.449152,0 -0.901468,-0.0854 -0.452316,-0.0854 -0.904631,-0.253044 v -1.02799 q 0.452315,0.240391 0.873,0.36375 0.423849,0.120196 0.816067,0.120196 0.398543,0 0.610468,-0.132848 0.211924,-0.132848 0.211924,-0.379566 0,-0.221413 -0.145501,-0.341609 -0.142337,-0.120195 -0.572511,-0.215087 l -0.471294,-0.10438 q -0.708522,-0.151827 -1.037479,-0.483947 -0.325794,-0.332119 -0.325794,-0.895142 0,-0.705359 0.455479,-1.084925 0.455478,-0.379565 1.309501,-0.379565 0.389055,0 0.800251,0.0601 0.411196,0.05693 0.850859,0.173967 z"
         style="font-style:normal;font-variant:normal;font-weight:bold;font-stretch:normal;font-size:6.47791958px;font-family:sans-serif;-inkscape-font-specification:'sans-serif, Bold';font-variant-ligatures:normal;font-variant-caps:normal;font-variant-numeric:normal;font-feature-settings:normal;text-align:start;writing-mode:lr-tb;text-anchor:start;fill:#ff7f2a;stroke-width:0.16194798"
         id="path23" />
      <path
         d="m 73.601848,46.420676 h 2.021187 q 0.901468,0 1.382251,0.401707 0.483947,0.398544 0.483947,1.138697 0,0.743316 -0.483947,1.145022 -0.480783,0.398544 -1.382251,0.398544 h -0.803414 v 1.638459 h -1.217773 z m 1.217773,0.88249 v 1.31899 h 0.673729 q 0.354261,0 0.547207,-0.170804 0.192946,-0.173968 0.192946,-0.490272 0,-0.316305 -0.192946,-0.48711 -0.192946,-0.170804 -0.547207,-0.170804 z"
         style="font-style:normal;font-variant:normal;font-weight:bold;font-stretch:normal;font-size:6.47791958px;font-family:sans-serif;-inkscape-font-specification:'sans-serif, Bold';font-variant-ligatures:normal;font-variant-caps:normal;font-variant-numeric:normal;font-feature-settings:normal;text-align:start;writing-mode:lr-tb;text-anchor:start;fill:#ff7f2a;stroke-width:0.16194798"
         id="path25" />
      <path
         d="m 80.503617,47.217764 q -0.556696,0 -0.863512,0.411196 -0.306815,0.411196 -0.306815,1.157675 0,0.743316 0.306815,1.154512 0.306816,0.411196 0.863512,0.411196 0.559859,0 0.866675,-0.411196 0.306815,-0.411196 0.306815,-1.154512 0,-0.746479 -0.306815,-1.157675 -0.306816,-0.411196 -0.866675,-0.411196 z m 0,-0.88249 q 1.138697,0 1.783958,0.651587 0.645262,0.651588 0.645262,1.799774 0,1.145023 -0.645262,1.79661 -0.645261,0.651588 -1.783958,0.651588 -1.135534,0 -1.783959,-0.651588 -0.645261,-0.651587 -0.645261,-1.79661 0,-1.148186 0.645261,-1.799774 0.648425,-0.651587 1.783959,-0.651587 z"
         style="font-style:normal;font-variant:normal;font-weight:bold;font-stretch:normal;font-size:6.47791958px;font-family:sans-serif;-inkscape-font-specification:'sans-serif, Bold';font-variant-ligatures:normal;font-variant-caps:normal;font-variant-numeric:normal;font-feature-settings:normal;text-align:start;writing-mode:lr-tb;text-anchor:start;fill:#ff7f2a;stroke-width:0.16194798"
         id="path27" />
      <path
         d="m 85.580306,48.514613 q 0.382728,0 0.547207,-0.142337 0.167641,-0.142337 0.167641,-0.468131 0,-0.322631 -0.167641,-0.461805 -0.164479,-0.139174 -0.547207,-0.139174 h -0.512414 v 1.211447 z m -0.512414,0.84137 v 1.787122 h -1.217773 v -4.722429 h 1.859872 q 0.933098,0 1.366436,0.313141 0.4365,0.313142 0.4365,0.990034 0,0.468131 -0.227739,0.76862 -0.224576,0.30049 -0.680055,0.442827 0.249881,0.05693 0.445989,0.25937 0.199272,0.199272 0.401707,0.607305 l 0.661077,1.341132 h -1.296849 l -0.575674,-1.173491 q -0.173968,-0.354261 -0.354262,-0.483946 -0.17713,-0.129685 -0.474457,-0.129685 z"
         style="font-style:normal;font-variant:normal;font-weight:bold;font-stretch:normal;font-size:6.47791958px;font-family:sans-serif;-inkscape-font-specification:'sans-serif, Bold';font-variant-ligatures:normal;font-variant-caps:normal;font-variant-numeric:normal;font-feature-settings:normal;text-align:start;writing-mode:lr-tb;text-anchor:start;fill:#ff7f2a;stroke-width:0.16194798"
         id="path29" />
      <path
         d="m 87.981059,46.420676 h 4.352352 v 0.920446 h -1.565708 v 3.801983 H 89.54993 v -3.801983 h -1.568871 z"
         style="font-style:normal;font-variant:normal;font-weight:bold;font-stretch:normal;font-size:6.47791958px;font-family:sans-serif;-inkscape-font-specification:'sans-serif, Bold';font-variant-ligatures:normal;font-variant-caps:normal;font-variant-numeric:normal;font-feature-settings:normal;text-align:start;writing-mode:lr-tb;text-anchor:start;fill:#ff7f2a;stroke-width:0.16194798"
         id="path31" />
      <path
         d="m 92.959693,46.420676 h 1.217773 v 4.722429 h -1.217773 z"
         style="font-style:normal;font-variant:normal;font-weight:bold;font-stretch:normal;font-size:6.47791958px;font-family:sans-serif;-inkscape-font-specification:'sans-serif, Bold';font-variant-ligatures:normal;font-variant-caps:normal;font-variant-numeric:normal;font-feature-settings:normal;text-align:start;writing-mode:lr-tb;text-anchor:start;fill:#ff7f2a;stroke-width:0.16194798"
         id="path33" />
    </g>
  </g>
</svg>
